<?xml version="1.0" encoding="UTF-8" standalone="no"?>
<svg
   xmlns:dc="http://purl.org/dc/elements/1.1/"
   xmlns:cc="http://creativecommons.org/ns#"
   xmlns:rdf="http://www.w3.org/1999/02/22-rdf-syntax-ns#"
   xmlns:svg="http://www.w3.org/2000/svg"
   xmlns="http://www.w3.org/2000/svg"
   xmlns:sodipodi="http://sodipodi.sourceforge.net/DTD/sodipodi-0.dtd"
   xmlns:inkscape="http://www.inkscape.org/namespaces/inkscape"
   width="210.11674mm"
   height="210.11674mm"
   viewBox="0 0 210.11674 210.11674"
   version="1.1"
   id="svg8"
   inkscape:version="1.0.2 (e86c870879, 2021-01-15, custom)"
   sodipodi:docname="keepassxc.svg"
   inkscape:export-filename="C:\Users\hidden\logo_dark.png"
   inkscape:export-xdpi="15.473302"
   inkscape:export-ydpi="15.473302">
  <defs
     id="defs2">
    <inkscape:perspective
       sodipodi:type="inkscape:persp3d"
       inkscape:vp_x="45.924106 : 50.27745 : 1"
       inkscape:vp_y="-1.8369094e-13 : 999.99995 : 0"
       inkscape:vp_z="179.95089 : 41.01704 : 1"
       inkscape:persp3d-origin="105 : 12.116742 : 1"
       id="perspective33" />
  </defs>
  <sodipodi:namedview
     id="base"
     pagecolor="#ffffff"
     bordercolor="#666666"
     borderopacity="1.0"
     inkscape:pageopacity="0.0"
     inkscape:pageshadow="2"
     inkscape:zoom="0.70710678"
     inkscape:cx="148.2062"
     inkscape:cy="491.11413"
     inkscape:document-units="mm"
     inkscape:current-layer="layer1"
     inkscape:document-rotation="0"
     showgrid="false"
     inkscape:snap-bbox="false"
     showguides="false"
     inkscape:window-width="1920"
     inkscape:window-height="1027"
     inkscape:window-x="-8"
     inkscape:window-y="-8"
     inkscape:window-maximized="1"
     fit-margin-top="0"
     fit-margin-left="0"
     fit-margin-right="0"
     fit-margin-bottom="0" />
  <metadata
     id="metadata5">
    <rdf:RDF>
      <cc:Work
         rdf:about="">
        <dc:format>image/svg+xml</dc:format>
        <dc:type
           rdf:resource="http://purl.org/dc/dcmitype/StillImage" />
        <dc:title></dc:title>
      </cc:Work>
    </rdf:RDF>
  </metadata>
  <g
     inkscape:groupmode="layer"
     id="layer2"
     inkscape:label="Layer 2"
     transform="translate(0,0.1167498)" />
  <g
     inkscape:label="Layer 1"
     inkscape:groupmode="layer"
     id="layer1"
     transform="translate(0,0.1167498)">
    <path
       id="path146"
       style="fill:none;stroke:#5c6bc0;stroke-width:20;stroke-miterlimit:4;stroke-dasharray:none;stroke-opacity:1"
       d="M 105.30837,9.8832502 A 55.116757,56.434528 0 0 0 50.191617,66.31778 a 55.116757,56.434528 0 0 0 5.08e-4,0.262018 V 140.11677 H 160.42412 V 66.642847 A 55.116757,56.434528 0 0 0 160.4251,66.31778 55.116757,56.434528 0 0 0 105.30834,9.8832502 Z"
       inkscape:export-xdpi="15.473302"
       inkscape:export-ydpi="15.473302" />
    <rect
       style="fill:#5c6bc0;fill-opacity:1;fill-rule:evenodd;stroke-width:0.301671"
       id="rect25"
       width="150"
       height="130"
       x="30.308365"
       y="80"
       rx="10.000007"
       ry="13.000009"
       inkscape:export-xdpi="15.473302"
       inkscape:export-ydpi="15.473302" />
    <path
       id="rect1009"
       style="fill:#7582c9;fill-opacity:1;stroke:#ffffff;stroke-width:2;stroke-miterlimit:4;stroke-dasharray:none;stroke-opacity:1"
       d="m 147.5756,120.54943 c -0.8302,0 -1.49847,0.66828 -1.49847,1.49848 v 6.28197 l -4.44198,-4.44198 c -0.58705,-0.58704 -1.53251,-0.58704 -2.11955,0 l -4.81912,4.81912 c -0.58705,0.58704 -0.58705,1.5325 0,2.11954 l 4.44198,4.44199 h -6.28197 c -0.83022,0 -1.49849,0.66827 -1.49849,1.49848 v 6.81553 c 0,0.8302 0.66827,1.49848 1.49849,1.49848 h 6.28197 l -4.44198,4.44199 c -0.58705,0.58704 -0.58705,1.53251 0,2.11955 l 4.81912,4.81912 c 0.58704,0.58704 1.5325,0.58704 2.11955,0 l 4.44198,-4.44199 v 6.28197 c 0,0.8302 0.66827,1.49847 1.49847,1.49847 h 6.81554 c 0.83021,0 1.49848,-0.66827 1.49848,-1.49847 v -6.28197 l 4.44198,4.44199 c 0.58704,0.58704 1.5325,0.58704 2.11956,0 l 4.81911,-4.81912 c 0.58705,-0.58704 0.58705,-1.53251 0,-2.11955 l -4.44199,-4.44199 h 6.28198 c 0.8302,0 1.49848,-0.66826 1.49848,-1.49848 v -6.81553 c 0,-0.83021 -0.66828,-1.49848 -1.49848,-1.49848 h -6.28198 l 4.44199,-4.44199 c 0.58705,-0.58704 0.58705,-1.5325 0,-2.11954 l -4.81911,-4.81912 c -0.58706,-0.58704 -1.53252,-0.58704 -2.11956,0 l -4.44198,4.44198 v -6.28197 c 0,-0.8302 -0.66827,-1.49848 -1.49848,-1.49848 z"
       inkscape:export-xdpi="15.473302"
       inkscape:export-ydpi="15.473302" />
    <path
       id="rect1009-4"
       style="fill:#8da2ab;fill-opacity:1;stroke:#ffffff;stroke-width:2;stroke-miterlimit:4;stroke-dasharray:none;stroke-opacity:1"
       d="m 102.57559,120.58543 c -0.8302,0 -1.49847,0.66828 -1.49847,1.49848 v 6.28197 l -4.441985,-4.44198 c -0.587046,-0.58704 -1.532506,-0.58704 -2.119548,0 l -4.819122,4.81912 c -0.587041,0.58704 -0.587041,1.5325 0,2.11954 l 4.441986,4.44199 h -6.281969 c -0.830213,0 -1.498476,0.66827 -1.498476,1.49848 v 6.81553 c 0,0.8302 0.668263,1.49848 1.498476,1.49848 h 6.281969 l -4.441986,4.44199 c -0.587041,0.58704 -0.587041,1.53251 0,2.11955 l 4.819122,4.81912 c 0.587042,0.58704 1.532502,0.58704 2.119548,0 l 4.441985,-4.44199 v 6.28197 c 0,0.8302 0.66827,1.49847 1.49847,1.49847 h 6.81554 c 0.83021,0 1.49848,-0.66827 1.49848,-1.49847 v -6.28197 l 4.44198,4.44199 c 0.58704,0.58704 1.5325,0.58704 2.11956,0 l 4.81911,-4.81912 c 0.58705,-0.58704 0.58705,-1.53251 0,-2.11955 l -4.44199,-4.44199 h 6.28198 c 0.8302,0 1.49848,-0.66826 1.49848,-1.49848 v -6.81553 c 0,-0.83021 -0.66828,-1.49848 -1.49848,-1.49848 h -6.28198 l 4.44199,-4.44199 c 0.58705,-0.58704 0.58705,-1.5325 0,-2.11954 l -4.81911,-4.81912 c -0.58706,-0.58704 -1.53252,-0.58704 -2.11956,0 l -4.44198,4.44198 v -6.28197 c 0,-0.8302 -0.66827,-1.49848 -1.49848,-1.49848 z"
       inkscape:export-xdpi="15.473302"
       inkscape:export-ydpi="15.473302" />
    <path
       id="rect1009-6"
       style="fill:#ffffff;fill-opacity:1;stroke:#ffffff;stroke-width:2;stroke-miterlimit:4;stroke-dasharray:none;stroke-opacity:1"
       d="m 57.575596,120.23902 c -0.8302,0 -1.49847,0.66828 -1.49847,1.49848 v 6.28197 l -4.44199,-4.44198 c -0.58704,-0.58704 -1.53251,-0.58704 -2.11955,0 l -4.81912,4.81912 c -0.58704,0.58704 -0.58704,1.5325 0,2.11954 l 4.44199,4.44199 h -6.281971 c -0.83021,0 -1.498481,0.66827 -1.498481,1.49848 v 6.81553 c 0,0.8302 0.668271,1.49848 1.498481,1.49848 h 6.281971 l -4.44199,4.44199 c -0.58704,0.58704 -0.58704,1.53251 0,2.11955 l 4.81912,4.81912 c 0.58704,0.58704 1.53251,0.58704 2.11955,0 l 4.44199,-4.44198 v 6.28196 c 0,0.83021 0.66827,1.49847 1.49847,1.49847 h 6.81554 c 0.83021,0 1.49847,-0.66826 1.49847,-1.49847 v -6.28196 l 4.44199,4.44198 c 0.58704,0.58704 1.5325,0.58704 2.11956,0 l 4.81911,-4.81912 c 0.58705,-0.58704 0.58705,-1.53251 0,-2.11955 l -4.44199,-4.44199 h 6.28198 c 0.83021,0 1.49847,-0.66826 1.49847,-1.49848 v -6.81553 c 0,-0.83021 -0.66826,-1.49848 -1.49847,-1.49848 h -6.28198 l 4.44199,-4.44199 c 0.58705,-0.58704 0.58705,-1.5325 0,-2.11954 l -4.81911,-4.81912 c -0.58706,-0.58704 -1.53252,-0.58704 -2.11956,0 l -4.44199,4.44198 v -6.28197 c 0,-0.8302 -0.66826,-1.49848 -1.49847,-1.49848 z"
       inkscape:export-xdpi="15.473302"
       inkscape:export-ydpi="15.473302" />
  </g>
</svg>
